# xmcd
#
# Track frame offsets:
#	150
#	11960
#	27054
#	40180
#	54733
#	67983
#	82515
#	97247
#	116900
#	126832
#	148490
#	168689
#	180864
#	195633
#	209211
#	221333
#	237735
#	272272
#
# Disc length: 3891 seconds
#
# Revision: 0
# Processed by: cddbd v1.5.1PL0 Copyright (c) Steve Scherf et al.
# Submitted via: dBpowerAMP V4.0
#
DISCID=0e0f3112
DTITLE=Ella Fitzgerald - The Quintessence CD 2
DYEAR=1900
DGENRE=Blues
TTITLE0=Petootie Pie
TTITLE1=That's Rich (Bugle Call Rag).
TTITLE2=You Won't Be Satisfied
TTITLE3=The Frim Fram Sauce
TTITLE4=I'm Just A Lucky So and So. E.F.
TTITLE5=Guilty
TTITLE6=Oh, Lady Be Good
TTITLE7=Budella (Blue Skies)
TTITLE8=Almost Like Being In Love
TTITLE9=Lover Man 
TTITLE10=How High The Moon I
TTITLE11=My Baby Likes To Bebop
TTITLE12=How High The Moon II
TTITLE13=Oool-ya-koo
TTITLE14=Love That Boy
TTITLE15=Mr. Paganini
TTITLE16=How High The Moon III
TTITLE17=Flying Home II
EXTD=
EXTT0=
EXTT1=
EXTT2=
EXTT3=
EXTT4=
EXTT5=
EXTT6=
EXTT7=
EXTT8=
EXTT9=
EXTT10=
EXTT11=
EXTT12=
EXTT13=
EXTT14=
EXTT15=
EXTT16=
EXTT17=
PLAYORDER=
